<mxfile host="app.diagrams.net" modified="2020-05-30T10:35:07.384Z" agent="5.0 (Macintosh; Intel Mac OS X 10_15_4) AppleWebKit/605.1.15 (KHTML, like Gecko) Version/13.1 Safari/605.1.15" etag="bmxYtXyIYxlmpVEUP7uy" version="13.1.8" type="github">
  <diagram id="K8DrmqcnOmunjT0_cRhj" name="Page-1">
    <mxGraphModel dx="1186" dy="711" grid="1" gridSize="10" guides="1" tooltips="1" connect="1" arrows="1" fold="1" page="1" pageScale="1" pageWidth="827" pageHeight="1169" math="0" shadow="0">
      <root>
        <mxCell id="0" />
        <mxCell id="1" parent="0" />
        <mxCell id="-ZfhQ_YrO38geQGk6Z-W-1" value="" style="endArrow=classic;html=1;" parent="1" edge="1">
          <mxGeometry width="50" height="50" relative="1" as="geometry">
            <mxPoint x="260" y="160" as="sourcePoint" />
            <mxPoint x="260" y="240" as="targetPoint" />
          </mxGeometry>
        </mxCell>
        <mxCell id="-ZfhQ_YrO38geQGk6Z-W-2" value="" style="endArrow=classic;html=1;" parent="1" edge="1">
          <mxGeometry width="50" height="50" relative="1" as="geometry">
            <mxPoint x="90" y="160" as="sourcePoint" />
            <mxPoint x="90" y="240" as="targetPoint" />
          </mxGeometry>
        </mxCell>
        <mxCell id="-ZfhQ_YrO38geQGk6Z-W-3" value="" style="shape=image;html=1;verticalAlign=top;verticalLabelPosition=bottom;labelBackgroundColor=#ffffff;imageAspect=0;aspect=fixed;image=https://cdn1.iconfinder.com/data/icons/line-free/24/Dish_antenna-128.png" parent="1" vertex="1">
          <mxGeometry x="40" y="30" width="128" height="128" as="geometry" />
        </mxCell>
        <mxCell id="-ZfhQ_YrO38geQGk6Z-W-4" value="" style="shape=mxgraph.cisco.wireless.antenna;html=1;dashed=0;fillColor=#036897;strokeColor=#ffffff;strokeWidth=2;verticalLabelPosition=bottom;verticalAlign=top" parent="1" vertex="1">
          <mxGeometry x="195" y="40" width="120" height="118" as="geometry" />
        </mxCell>
        <mxCell id="-ZfhQ_YrO38geQGk6Z-W-7" value="" style="endArrow=none;html=1;entryX=0.133;entryY=1.067;entryDx=0;entryDy=0;entryPerimeter=0;startArrow=block;startFill=1;" parent="1" edge="1">
          <mxGeometry width="50" height="50" relative="1" as="geometry">
            <mxPoint x="88" y="325.98" as="sourcePoint" />
            <mxPoint x="88.048" y="300" as="targetPoint" />
          </mxGeometry>
        </mxCell>
        <mxCell id="-ZfhQ_YrO38geQGk6Z-W-8" value="" style="endArrow=none;html=1;entryX=0.133;entryY=1.067;entryDx=0;entryDy=0;entryPerimeter=0;startArrow=block;startFill=1;" parent="1" edge="1">
          <mxGeometry width="50" height="50" relative="1" as="geometry">
            <mxPoint x="70" y="325.98" as="sourcePoint" />
            <mxPoint x="70.048" y="300" as="targetPoint" />
          </mxGeometry>
        </mxCell>
        <mxCell id="-ZfhQ_YrO38geQGk6Z-W-9" value="" style="endArrow=none;html=1;entryX=0.133;entryY=1.067;entryDx=0;entryDy=0;entryPerimeter=0;startArrow=block;startFill=1;" parent="1" edge="1">
          <mxGeometry width="50" height="50" relative="1" as="geometry">
            <mxPoint x="103.5" y="325.98" as="sourcePoint" />
            <mxPoint x="103.548" y="300" as="targetPoint" />
          </mxGeometry>
        </mxCell>
        <mxCell id="-ZfhQ_YrO38geQGk6Z-W-12" value="" style="endArrow=none;html=1;entryX=0.133;entryY=1.067;entryDx=0;entryDy=0;entryPerimeter=0;startArrow=block;startFill=1;" parent="1" edge="1">
          <mxGeometry width="50" height="50" relative="1" as="geometry">
            <mxPoint x="120" y="325.98" as="sourcePoint" />
            <mxPoint x="120.048" y="300" as="targetPoint" />
          </mxGeometry>
        </mxCell>
        <mxCell id="-ZfhQ_YrO38geQGk6Z-W-13" value="" style="endArrow=none;dashed=1;html=1;" parent="1" edge="1">
          <mxGeometry width="50" height="50" relative="1" as="geometry">
            <mxPoint x="140" y="360" as="sourcePoint" />
            <mxPoint x="140" y="297" as="targetPoint" />
          </mxGeometry>
        </mxCell>
        <mxCell id="-ZfhQ_YrO38geQGk6Z-W-14" value="Other flats" style="text;html=1;strokeColor=none;fillColor=none;align=center;verticalAlign=middle;whiteSpace=wrap;rounded=0;" parent="1" vertex="1">
          <mxGeometry x="50" y="330" width="90" height="20" as="geometry" />
        </mxCell>
        <mxCell id="-ZfhQ_YrO38geQGk6Z-W-5" value="Triax Quadruplex" style="rounded=1;whiteSpace=wrap;html=1;" parent="1" vertex="1">
          <mxGeometry x="44" y="240" width="256" height="60" as="geometry" />
        </mxCell>
        <mxCell id="-ZfhQ_YrO38geQGk6Z-W-16" value="" style="endArrow=none;html=1;startArrow=block;startFill=1;" parent="1" edge="1">
          <mxGeometry width="50" height="50" relative="1" as="geometry">
            <mxPoint x="161.5" y="440" as="sourcePoint" />
            <mxPoint x="161.5" y="300" as="targetPoint" />
          </mxGeometry>
        </mxCell>
        <mxCell id="-ZfhQ_YrO38geQGk6Z-W-17" value="" style="endArrow=none;html=1;endFill=0;startArrow=block;startFill=1;" parent="1" edge="1">
          <mxGeometry width="50" height="50" relative="1" as="geometry">
            <mxPoint x="181.5" y="440" as="sourcePoint" />
            <mxPoint x="181.5" y="300" as="targetPoint" />
          </mxGeometry>
        </mxCell>
        <mxCell id="-ZfhQ_YrO38geQGk6Z-W-20" value="" style="endArrow=block;html=1;endFill=1;" parent="1" edge="1">
          <mxGeometry width="50" height="50" relative="1" as="geometry">
            <mxPoint x="122" y="500" as="sourcePoint" />
            <mxPoint x="122" y="560" as="targetPoint" />
          </mxGeometry>
        </mxCell>
        <mxCell id="-ZfhQ_YrO38geQGk6Z-W-21" value="" style="endArrow=block;html=1;exitX=0.25;exitY=1;exitDx=0;exitDy=0;startArrow=none;startFill=0;endFill=1;" parent="1" source="-ZfhQ_YrO38geQGk6Z-W-18" edge="1">
          <mxGeometry width="50" height="50" relative="1" as="geometry">
            <mxPoint x="232" y="462" as="sourcePoint" />
            <mxPoint x="142" y="560" as="targetPoint" />
          </mxGeometry>
        </mxCell>
        <mxCell id="-ZfhQ_YrO38geQGk6Z-W-22" value="Sat 1 &amp;amp; Sat 2&lt;br&gt;" style="text;html=1;strokeColor=none;fillColor=none;align=center;verticalAlign=middle;whiteSpace=wrap;rounded=0;" parent="1" vertex="1">
          <mxGeometry x="82" y="565" width="100" height="20" as="geometry" />
        </mxCell>
        <mxCell id="-ZfhQ_YrO38geQGk6Z-W-23" value="" style="endArrow=none;html=1;entryX=0.75;entryY=1;entryDx=0;entryDy=0;endFill=0;startArrow=block;startFill=1;" parent="1" edge="1">
          <mxGeometry width="50" height="50" relative="1" as="geometry">
            <mxPoint x="191" y="561" as="sourcePoint" />
            <mxPoint x="191" y="500" as="targetPoint" />
          </mxGeometry>
        </mxCell>
        <mxCell id="-ZfhQ_YrO38geQGk6Z-W-18" value="Triax Quad faceplate" style="rounded=0;whiteSpace=wrap;html=1;" parent="1" vertex="1">
          <mxGeometry x="112" y="440" width="120" height="60" as="geometry" />
        </mxCell>
        <mxCell id="-ZfhQ_YrO38geQGk6Z-W-24" value="Radio" style="text;html=1;strokeColor=none;fillColor=none;align=center;verticalAlign=middle;whiteSpace=wrap;rounded=0;" parent="1" vertex="1">
          <mxGeometry x="171" y="565" width="40" height="20" as="geometry" />
        </mxCell>
        <mxCell id="-ZfhQ_YrO38geQGk6Z-W-25" value="" style="endArrow=block;html=1;exitX=1;exitY=0.25;exitDx=0;exitDy=0;endFill=1;" parent="1" source="-ZfhQ_YrO38geQGk6Z-W-18" edge="1">
          <mxGeometry width="50" height="50" relative="1" as="geometry">
            <mxPoint x="480" y="540" as="sourcePoint" />
            <mxPoint x="350" y="455" as="targetPoint" />
          </mxGeometry>
        </mxCell>
        <mxCell id="-ZfhQ_YrO38geQGk6Z-W-26" value="TV" style="text;html=1;strokeColor=none;fillColor=none;align=center;verticalAlign=middle;whiteSpace=wrap;rounded=0;" parent="1" vertex="1">
          <mxGeometry x="352" y="444" width="40" height="24" as="geometry" />
        </mxCell>
        <mxCell id="-ZfhQ_YrO38geQGk6Z-W-27" value="" style="endArrow=none;html=1;exitX=1;exitY=0.5;exitDx=0;exitDy=0;" parent="1" source="-ZfhQ_YrO38geQGk6Z-W-26" edge="1">
          <mxGeometry width="50" height="50" relative="1" as="geometry">
            <mxPoint x="480" y="540" as="sourcePoint" />
            <mxPoint x="440" y="456" as="targetPoint" />
          </mxGeometry>
        </mxCell>
        <mxCell id="-ZfhQ_YrO38geQGk6Z-W-28" value="Triax Link Lead" style="rounded=0;whiteSpace=wrap;html=1;" parent="1" vertex="1">
          <mxGeometry x="440" y="440" width="120" height="60" as="geometry" />
        </mxCell>
        <mxCell id="-ZfhQ_YrO38geQGk6Z-W-31" value="" style="endArrow=none;html=1;entryX=0.5;entryY=1;entryDx=0;entryDy=0;" parent="1" target="-ZfhQ_YrO38geQGk6Z-W-28" edge="1">
          <mxGeometry width="50" height="50" relative="1" as="geometry">
            <mxPoint x="500" y="520" as="sourcePoint" />
            <mxPoint x="530" y="490" as="targetPoint" />
          </mxGeometry>
        </mxCell>
        <mxCell id="-ZfhQ_YrO38geQGk6Z-W-32" value="" style="endArrow=none;html=1;exitX=1;exitY=0.75;exitDx=0;exitDy=0;startArrow=block;startFill=1;" parent="1" source="-ZfhQ_YrO38geQGk6Z-W-18" edge="1">
          <mxGeometry width="50" height="50" relative="1" as="geometry">
            <mxPoint x="480" y="540" as="sourcePoint" />
            <mxPoint x="350" y="485" as="targetPoint" />
          </mxGeometry>
        </mxCell>
        <mxCell id="-ZfhQ_YrO38geQGk6Z-W-36" value="Return" style="text;html=1;strokeColor=none;fillColor=none;align=center;verticalAlign=middle;whiteSpace=wrap;rounded=0;" parent="1" vertex="1">
          <mxGeometry x="352" y="473" width="40" height="24" as="geometry" />
        </mxCell>
        <mxCell id="-ZfhQ_YrO38geQGk6Z-W-37" value="" style="endArrow=none;html=1;" parent="1" edge="1">
          <mxGeometry width="50" height="50" relative="1" as="geometry">
            <mxPoint x="420" y="520" as="sourcePoint" />
            <mxPoint x="500" y="520" as="targetPoint" />
          </mxGeometry>
        </mxCell>
        <mxCell id="-ZfhQ_YrO38geQGk6Z-W-38" value="" style="endArrow=none;html=1;" parent="1" edge="1">
          <mxGeometry width="50" height="50" relative="1" as="geometry">
            <mxPoint x="420" y="485" as="sourcePoint" />
            <mxPoint x="420" y="520" as="targetPoint" />
          </mxGeometry>
        </mxCell>
        <mxCell id="-ZfhQ_YrO38geQGk6Z-W-39" value="" style="endArrow=none;html=1;entryX=1;entryY=0.5;entryDx=0;entryDy=0;" parent="1" target="-ZfhQ_YrO38geQGk6Z-W-36" edge="1">
          <mxGeometry width="50" height="50" relative="1" as="geometry">
            <mxPoint x="420" y="485" as="sourcePoint" />
            <mxPoint x="530" y="530" as="targetPoint" />
          </mxGeometry>
        </mxCell>
        <mxCell id="-ZfhQ_YrO38geQGk6Z-W-41" value="" style="endArrow=none;html=1;entryX=1;entryY=0.25;entryDx=0;entryDy=0;endFill=0;startArrow=block;startFill=1;" parent="1" target="-ZfhQ_YrO38geQGk6Z-W-28" edge="1">
          <mxGeometry width="50" height="50" relative="1" as="geometry">
            <mxPoint x="640" y="455" as="sourcePoint" />
            <mxPoint x="530" y="490" as="targetPoint" />
          </mxGeometry>
        </mxCell>
        <mxCell id="-ZfhQ_YrO38geQGk6Z-W-42" value="" style="pointerEvents=1;shadow=0;dashed=0;html=1;strokeColor=none;fillColor=#505050;labelPosition=center;verticalLabelPosition=bottom;verticalAlign=top;outlineConnect=0;align=center;shape=mxgraph.office.devices.tv;" parent="1" vertex="1">
          <mxGeometry x="640" y="440" width="59" height="45" as="geometry" />
        </mxCell>
        <mxCell id="-ZfhQ_YrO38geQGk6Z-W-43" value="" style="endArrow=classic;html=1;exitX=0.917;exitY=1.05;exitDx=0;exitDy=0;exitPerimeter=0;" parent="1" edge="1">
          <mxGeometry width="50" height="50" relative="1" as="geometry">
            <mxPoint x="220.03999999999996" y="501" as="sourcePoint" />
            <mxPoint x="220" y="658" as="targetPoint" />
          </mxGeometry>
        </mxCell>
        <mxCell id="-ZfhQ_YrO38geQGk6Z-W-45" value="Signal Amplifier" style="rounded=0;whiteSpace=wrap;html=1;" parent="1" vertex="1">
          <mxGeometry x="112" y="660" width="120" height="60" as="geometry" />
        </mxCell>
        <mxCell id="-ZfhQ_YrO38geQGk6Z-W-46" value="" style="endArrow=classic;html=1;exitX=0.75;exitY=1;exitDx=0;exitDy=0;" parent="1" edge="1">
          <mxGeometry width="50" height="50" relative="1" as="geometry">
            <mxPoint x="218" y="720" as="sourcePoint" />
            <mxPoint x="218" y="800" as="targetPoint" />
          </mxGeometry>
        </mxCell>
        <mxCell id="-ZfhQ_YrO38geQGk6Z-W-47" value="" style="endArrow=classic;html=1;exitX=0.25;exitY=1;exitDx=0;exitDy=0;" parent="1" edge="1">
          <mxGeometry width="50" height="50" relative="1" as="geometry">
            <mxPoint x="131" y="720" as="sourcePoint" />
            <mxPoint x="131" y="800" as="targetPoint" />
          </mxGeometry>
        </mxCell>
        <mxCell id="-ZfhQ_YrO38geQGk6Z-W-48" value="TV Outlet 1" style="text;html=1;strokeColor=none;fillColor=none;align=center;verticalAlign=middle;whiteSpace=wrap;rounded=0;" parent="1" vertex="1">
          <mxGeometry x="96" y="800" width="70" height="20" as="geometry" />
        </mxCell>
        <mxCell id="-ZfhQ_YrO38geQGk6Z-W-49" value="TV Outlet 2" style="text;html=1;strokeColor=none;fillColor=none;align=center;verticalAlign=middle;whiteSpace=wrap;rounded=0;" parent="1" vertex="1">
          <mxGeometry x="184" y="800" width="70" height="20" as="geometry" />
        </mxCell>
        <mxCell id="-ZfhQ_YrO38geQGk6Z-W-52" value="" style="endArrow=classic;html=1;" parent="1" edge="1">
          <mxGeometry width="50" height="50" relative="1" as="geometry">
            <mxPoint x="80" y="160" as="sourcePoint" />
            <mxPoint x="80" y="240" as="targetPoint" />
          </mxGeometry>
        </mxCell>
        <mxCell id="-ZfhQ_YrO38geQGk6Z-W-53" value="" style="endArrow=classic;html=1;" parent="1" edge="1">
          <mxGeometry width="50" height="50" relative="1" as="geometry">
            <mxPoint x="100.5" y="160" as="sourcePoint" />
            <mxPoint x="100.5" y="240" as="targetPoint" />
          </mxGeometry>
        </mxCell>
        <mxCell id="-ZfhQ_YrO38geQGk6Z-W-54" value="" style="endArrow=classic;html=1;" parent="1" edge="1">
          <mxGeometry width="50" height="50" relative="1" as="geometry">
            <mxPoint x="111" y="160" as="sourcePoint" />
            <mxPoint x="111" y="240" as="targetPoint" />
          </mxGeometry>
        </mxCell>
        <mxCell id="hAUNBrR9u5mkMO2G-LKO-1" value="" style="endArrow=none;dashed=1;html=1;" edge="1" parent="1">
          <mxGeometry width="50" height="50" relative="1" as="geometry">
            <mxPoint x="20" y="410" as="sourcePoint" />
            <mxPoint x="320" y="410" as="targetPoint" />
          </mxGeometry>
        </mxCell>
      </root>
    </mxGraphModel>
  </diagram>
</mxfile>
